
<svg xmlns="http://www.w3.org/2000/svg" style="display:none" aria-hidden="true">

  
  <symbol id="krt-icon-close" viewBox="0 0 24 24"><path d="M6 6l12 12M18 6L6 18" stroke="currentColor" stroke-width="2" stroke-linecap="round" fill="none"></path></symbol>
  <symbol id="krt-icon-chevron-down" viewBox="0 0 24 24"><path d="M6 9l6 6 6-6" stroke="currentColor" stroke-width="2" stroke-linecap="round" stroke-linejoin="round" fill="none"></path></symbol>
  <symbol id="krt-icon-chevron-up" viewBox="0 0 24 24"><path d="M6 15l6-6 6 6" stroke="currentColor" stroke-width="2" stroke-linecap="round" stroke-linejoin="round" fill="none"></path></symbol>
  <symbol id="krt-icon-chevron-left" viewBox="0 0 24 24"><path d="M15 6l-6 6 6 6" stroke="currentColor" stroke-width="2" stroke-linecap="round" stroke-linejoin="round" fill="none"></path></symbol>
  <symbol id="krt-icon-chevron-right" viewBox="0 0 24 24"><path d="M9 6l6 6-6 6" stroke="currentColor" stroke-width="2" stroke-linecap="round" stroke-linejoin="round" fill="none"></path></symbol>
  <symbol id="krt-icon-warning" viewBox="0 0 24 24"><path d="M12 3l10 18H2L12 3z" stroke="currentColor" stroke-width="2" stroke-linejoin="round" fill="none"></path><path d="M12 10v5M12 18v0.01" stroke="currentColor" stroke-width="2" stroke-linecap="round"></path></symbol>
  <symbol id="krt-icon-success" viewBox="0 0 24 24"><path d="M5 12l5 5 9-11" stroke="currentColor" stroke-width="2.5" stroke-linecap="round" stroke-linejoin="round" fill="none"></path></symbol>
  <symbol id="krt-icon-info" viewBox="0 0 24 24"><circle cx="12" cy="12" r="9" stroke="currentColor" stroke-width="2" fill="none"></circle><path d="M12 11v6M12 7v0.01" stroke="currentColor" stroke-width="2" stroke-linecap="round"></path></symbol>
  <symbol id="krt-icon-plus" viewBox="0 0 24 24"><path d="M12 5v14M5 12h14" stroke="currentColor" stroke-width="2" stroke-linecap="round"></path></symbol>
  <symbol id="krt-icon-minus" viewBox="0 0 24 24"><path d="M5 12h14" stroke="currentColor" stroke-width="2" stroke-linecap="round"></path></symbol>
  <symbol id="krt-icon-search" viewBox="0 0 24 24"><circle cx="11" cy="11" r="6" stroke="currentColor" stroke-width="2" fill="none"></circle><path d="M20 20l-4-4" stroke="currentColor" stroke-width="2" stroke-linecap="round"></path></symbol>
  <symbol id="krt-icon-filter" viewBox="0 0 24 24"><path d="M4 5h16l-6 8v6l-4-2v-4z" stroke="currentColor" stroke-width="2" stroke-linejoin="round" fill="none"></path></symbol>
  <symbol id="krt-icon-edit" viewBox="0 0 24 24"><path d="M14 4l6 6-11 11H3v-6z" stroke="currentColor" stroke-width="2" stroke-linejoin="round" fill="none"></path></symbol>
  <symbol id="krt-icon-trash" viewBox="0 0 24 24"><path d="M5 7h14M9 7V4h6v3M7 7l1 14h8l1-14" stroke="currentColor" stroke-width="2" stroke-linecap="round" stroke-linejoin="round" fill="none"></path></symbol>
  <symbol id="krt-icon-bookout" viewBox="0 0 24 24"><path d="M11 5H6v14h5" stroke="currentColor" stroke-width="2" stroke-linecap="round" stroke-linejoin="round" fill="none"></path><path d="M9 12h11m-4-4l4 4-4 4" stroke="currentColor" stroke-width="2" stroke-linecap="round" stroke-linejoin="round" fill="none"></path></symbol>
  <symbol id="krt-icon-save" viewBox="0 0 24 24"><path d="M5 4h11l4 4v12H5z" stroke="currentColor" stroke-width="2" stroke-linejoin="round" fill="none"></path><path d="M9 4v4h5V4" stroke="currentColor" stroke-width="2" stroke-linejoin="round" fill="none"></path><path d="M8 20v-6h8v6" stroke="currentColor" stroke-width="2" stroke-linejoin="round" fill="none"></path></symbol>

  
  
  <symbol id="krt-icon-arrow-left" viewBox="0 0 24 24"><path d="M19 12H5" stroke="currentColor" stroke-width="2" stroke-linecap="round"></path><path d="M12 5l-7 7 7 7" stroke="currentColor" stroke-width="2" stroke-linecap="round" stroke-linejoin="round" fill="none"></path></symbol>
  
  <symbol id="krt-icon-arrow-right" viewBox="0 0 24 24"><path d="M5 12h14" stroke="currentColor" stroke-width="2" stroke-linecap="round"></path><path d="M12 5l7 7-7 7" stroke="currentColor" stroke-width="2" stroke-linecap="round" stroke-linejoin="round" fill="none"></path></symbol>
  
  <symbol id="krt-icon-check" viewBox="0 0 24 24"><path d="M5 12l4 4 10-10" stroke="currentColor" stroke-width="2" stroke-linecap="round" stroke-linejoin="round" fill="none"></path></symbol>
  
  <symbol id="krt-icon-login" viewBox="0 0 24 24"><path d="M14 4h6v16h-6" stroke="currentColor" stroke-width="2" stroke-linecap="round" stroke-linejoin="round" fill="none"></path><path d="M3 12h11" stroke="currentColor" stroke-width="2" stroke-linecap="round"></path><path d="M11 8l4 4-4 4" stroke="currentColor" stroke-width="2" stroke-linecap="round" stroke-linejoin="round" fill="none"></path></symbol>
  
  <symbol id="krt-icon-logout" viewBox="0 0 24 24"><path d="M10 4H4v16h6" stroke="currentColor" stroke-width="2" stroke-linecap="round" stroke-linejoin="round" fill="none"></path><path d="M21 12H10" stroke="currentColor" stroke-width="2" stroke-linecap="round"></path><path d="M17 8l4 4-4 4" stroke="currentColor" stroke-width="2" stroke-linecap="round" stroke-linejoin="round" fill="none"></path></symbol>
  
  <symbol id="krt-icon-user-plus" viewBox="0 0 24 24"><path d="M15 20v-2a4 4 0 0 0-4-4H6a4 4 0 0 0-4 4v2" stroke="currentColor" stroke-width="2" stroke-linecap="round" stroke-linejoin="round" fill="none"></path><circle cx="8.5" cy="7" r="4" stroke="currentColor" stroke-width="2" fill="none"></circle><path d="M19 8v6M22 11h-6" stroke="currentColor" stroke-width="2" stroke-linecap="round"></path></symbol>
  
  <symbol id="krt-icon-external-link" viewBox="0 0 24 24"><path d="M18 13v6a2 2 0 0 1-2 2H5a2 2 0 0 1-2-2V8a2 2 0 0 1 2-2h6" stroke="currentColor" stroke-width="2" stroke-linecap="round" stroke-linejoin="round" fill="none"></path><path d="M15 3h6v6" stroke="currentColor" stroke-width="2" stroke-linecap="round" stroke-linejoin="round" fill="none"></path><path d="M10 14L21 3" stroke="currentColor" stroke-width="2" stroke-linecap="round"></path></symbol>
  
  <symbol id="krt-icon-clock" viewBox="0 0 24 24"><circle cx="12" cy="12" r="9" stroke="currentColor" stroke-width="2" fill="none"></circle><path d="M12 7v5l3 3" stroke="currentColor" stroke-width="2" stroke-linecap="round" stroke-linejoin="round" fill="none"></path></symbol>
  
  <symbol id="krt-icon-map-pin" viewBox="0 0 24 24"><path d="M19 10c0 5-7 11-7 11s-7-6-7-11a7 7 0 0 1 14 0z" stroke="currentColor" stroke-width="2" stroke-linejoin="round" fill="none"></path><circle cx="12" cy="10" r="2.5" stroke="currentColor" stroke-width="2" fill="none"></circle></symbol>
  
  <symbol id="krt-icon-filter-off" viewBox="0 0 24 24"><path d="M4 5h16l-6 8v6l-4-2v-4z" stroke="currentColor" stroke-width="2" stroke-linejoin="round" fill="none"></path><path d="M3 3l18 18" stroke="currentColor" stroke-width="2" stroke-linecap="round"></path></symbol>
  
  <symbol id="krt-icon-eye" viewBox="0 0 24 24"><path d="M2 12s4-7 10-7 10 7 10 7-4 7-10 7-10-7-10-7z" stroke="currentColor" stroke-width="2" stroke-linejoin="round" fill="none"></path><circle cx="12" cy="12" r="3" stroke="currentColor" stroke-width="2" fill="none"></circle></symbol>
  
  <symbol id="krt-icon-download" viewBox="0 0 24 24"><path d="M12 3v12" stroke="currentColor" stroke-width="2" stroke-linecap="round"></path><path d="M7 10l5 5 5-5" stroke="currentColor" stroke-width="2" stroke-linecap="round" stroke-linejoin="round" fill="none"></path><path d="M5 21h14" stroke="currentColor" stroke-width="2" stroke-linecap="round"></path></symbol>
  
  <symbol id="krt-icon-upload" viewBox="0 0 24 24"><path d="M12 15V3" stroke="currentColor" stroke-width="2" stroke-linecap="round"></path><path d="M7 8l5-5 5 5" stroke="currentColor" stroke-width="2" stroke-linecap="round" stroke-linejoin="round" fill="none"></path><path d="M5 21h14" stroke="currentColor" stroke-width="2" stroke-linecap="round"></path></symbol>
  
  <symbol id="krt-icon-clipboard-check" viewBox="0 0 24 24"><path d="M9 4H7a2 2 0 0 0-2 2v13a2 2 0 0 0 2 2h10a2 2 0 0 0 2-2V6a2 2 0 0 0-2-2h-2" stroke="currentColor" stroke-width="2" stroke-linecap="round" stroke-linejoin="round" fill="none"></path><path d="M9 3h6v3H9z" stroke="currentColor" stroke-width="2" stroke-linejoin="round" fill="none"></path><path d="M9 13l2 2 4-4" stroke="currentColor" stroke-width="2" stroke-linecap="round" stroke-linejoin="round" fill="none"></path></symbol>
  
  <symbol id="krt-icon-list" viewBox="0 0 24 24"><path d="M8 6h13M8 12h13M8 18h13" stroke="currentColor" stroke-width="2" stroke-linecap="round"></path><path d="M3.5 6h.01M3.5 12h.01M3.5 18h.01" stroke="currentColor" stroke-width="2.5" stroke-linecap="round"></path></symbol>
  
  <symbol id="krt-icon-more" viewBox="0 0 24 24"><path d="M5 12h.01M12 12h.01M19 12h.01" stroke="currentColor" stroke-width="3" stroke-linecap="round"></path></symbol>
</svg>